<svg width="16" height="14" viewBox="0 0 16 14" fill="none" xmlns="http://www.w3.org/2000/svg">
<path d="M15.649 7.0144C15.649 7.66281 15.1865 8.13831 14.5217 8.13831H7.10748L3.94237 8.00863L5.73449 9.49278L7.51215 11.2507C7.71449 11.4524 7.84456 11.7262 7.84456 12.0432C7.84456 12.6628 7.36763 13.1239 6.76062 13.1239C6.44266 13.1239 6.18252 13.0374 5.98018 12.8357L1.02295 7.87895C0.719441 7.57636 0.603821 7.3314 0.603821 7.0144C0.603821 6.66857 0.733894 6.42362 1.02295 6.13543L5.98018 1.19307C6.18252 0.976933 6.44266 0.876068 6.76062 0.876068C7.36763 0.876068 7.84456 1.35157 7.84456 1.97117C7.84456 2.28817 7.72894 2.56195 7.51215 2.76368L5.73449 4.50719L3.92791 6.02016L7.10748 5.89048H14.5217C15.1865 5.89048 15.649 6.35157 15.649 7.0144Z" fill="#9191A8"/>
</svg>
