<svg width="18" height="16" viewBox="0 0 18 16" fill="none" xmlns="http://www.w3.org/2000/svg">
<path d="M3.40806 15.6257H14.5919C16.3872 15.6257 17.3333 14.6877 17.3333 12.9167V3.09137C17.3333 1.32039 16.3872 0.374246 14.5919 0.374246H3.40806C1.6209 0.374246 0.666668 1.32039 0.666668 3.09137V12.9167C0.666668 14.6877 1.6209 15.6257 3.40806 15.6257ZM3.46466 13.8305C2.81773 13.8305 2.47 13.507 2.47 12.8197V5.47695C2.47 4.79767 2.81773 4.4742 3.46466 4.4742H14.5273C15.1742 4.4742 15.53 4.79767 15.53 5.47695V12.8197C15.53 13.507 15.1742 13.8305 14.5273 13.8305H3.46466ZM7.45949 7.19941H7.9366C8.22772 7.19941 8.32476 7.11046 8.32476 6.81934V6.34222C8.32476 6.0511 8.22772 5.96215 7.9366 5.96215H7.45949C7.16837 5.96215 7.07133 6.0511 7.07133 6.34222V6.81934C7.07133 7.11046 7.16837 7.19941 7.45949 7.19941ZM10.0715 7.19941H10.5486C10.8397 7.19941 10.9368 7.11046 10.9368 6.81934V6.34222C10.9368 6.0511 10.8397 5.96215 10.5486 5.96215H10.0715C9.78037 5.96215 9.68333 6.0511 9.68333 6.34222V6.81934C9.68333 7.11046 9.78037 7.19941 10.0715 7.19941ZM12.6835 7.19941H13.1606C13.4517 7.19941 13.5569 7.11046 13.5569 6.81934V6.34222C13.5569 6.0511 13.4517 5.96215 13.1606 5.96215H12.6835C12.3924 5.96215 12.2953 6.0511 12.2953 6.34222V6.81934C12.2953 7.11046 12.3924 7.19941 12.6835 7.19941ZM4.84749 9.77098H5.3246C5.61572 9.77098 5.71276 9.68203 5.71276 9.39091V8.91379C5.71276 8.62267 5.61572 8.53372 5.3246 8.53372H4.84749C4.55637 8.53372 4.45124 8.62267 4.45124 8.91379V9.39091C4.45124 9.68203 4.55637 9.77098 4.84749 9.77098ZM7.45949 9.77098H7.9366C8.22772 9.77098 8.32476 9.68203 8.32476 9.39091V8.91379C8.32476 8.62267 8.22772 8.53372 7.9366 8.53372H7.45949C7.16837 8.53372 7.07133 8.62267 7.07133 8.91379V9.39091C7.07133 9.68203 7.16837 9.77098 7.45949 9.77098ZM10.0715 9.77098H10.5486C10.8397 9.77098 10.9368 9.68203 10.9368 9.39091V8.91379C10.9368 8.62267 10.8397 8.53372 10.5486 8.53372H10.0715C9.78037 8.53372 9.68333 8.62267 9.68333 8.91379V9.39091C9.68333 9.68203 9.78037 9.77098 10.0715 9.77098ZM12.6835 9.77098H13.1606C13.4517 9.77098 13.5569 9.68203 13.5569 9.39091V8.91379C13.5569 8.62267 13.4517 8.53372 13.1606 8.53372H12.6835C12.3924 8.53372 12.2953 8.62267 12.2953 8.91379V9.39091C12.2953 9.68203 12.3924 9.77098 12.6835 9.77098ZM4.84749 12.3425H5.3246C5.61572 12.3425 5.71276 12.2536 5.71276 11.9625V11.4854C5.71276 11.1942 5.61572 11.1053 5.3246 11.1053H4.84749C4.55637 11.1053 4.45124 11.1942 4.45124 11.4854V11.9625C4.45124 12.2536 4.55637 12.3425 4.84749 12.3425ZM7.45949 12.3425H7.9366C8.22772 12.3425 8.32476 12.2536 8.32476 11.9625V11.4854C8.32476 11.1942 8.22772 11.1053 7.9366 11.1053H7.45949C7.16837 11.1053 7.07133 11.1942 7.07133 11.4854V11.9625C7.07133 12.2536 7.16837 12.3425 7.45949 12.3425ZM10.0715 12.3425H10.5486C10.8397 12.3425 10.9368 12.2536 10.9368 11.9625V11.4854C10.9368 11.1942 10.8397 11.1053 10.5486 11.1053H10.0715C9.78037 11.1053 9.68333 11.1942 9.68333 11.4854V11.9625C9.68333 12.2536 9.78037 12.3425 10.0715 12.3425Z" fill="#63637B"/>
</svg>
