<svg width="16" height="17" viewBox="0 0 16 17" fill="none" xmlns="http://www.w3.org/2000/svg">
<path fill-rule="evenodd" clip-rule="evenodd" d="M13.6023 12.8553L15.8784 4.6348C16.2471 3.30289 15.7389 2.3965 14.4191 2.03106L8.66352 0.437474C7.34367 0.0720337 6.44163 0.587953 6.07286 1.91986L5.61943 3.55751L5.31944 4.64096L3.79678 10.1403C3.42633 11.4783 3.9302 12.377 5.25608 12.7441L11.0116 14.3377C12.3375 14.7048 13.2318 14.1932 13.6023 12.8553ZM4.55782 4.64096L2.3175 4.57461C1.82164 4.56365 1.61202 4.68999 1.52269 4.77621C1.43178 4.86396 1.29484 5.07496 1.28363 5.58213L1.09515 14.1098C1.08379 14.6237 1.21162 14.8388 1.29599 14.9278C1.37879 15.0151 1.58087 15.1509 2.0835 15.162L8.05412 15.294C8.55675 15.3051 8.76463 15.1783 8.85121 15.0948C8.9257 15.0229 9.03514 14.8625 9.07422 14.5048L10.1212 14.8635C9.9223 15.8875 9.20915 16.4096 8.03004 16.3835L2.05942 16.2516C0.683989 16.2212 -0.0250712 15.4737 0.00560485 14.0857L0.194083 5.55805C0.224621 4.17637 0.972404 3.4548 2.34158 3.48507L4.86707 3.54985L4.55782 4.64096Z" fill="#292936"/>
</svg>
