<svg width="16" height="16" viewBox="0 0 16 16" fill="none" xmlns="http://www.w3.org/2000/svg">
<path fill-rule="evenodd" clip-rule="evenodd" d="M8 0.5C12.1421 0.5 15.5 3.85787 15.5 8C15.5 12.1421 12.1421 15.5 8 15.5C3.85787 15.5 0.5 12.1421 0.5 8C0.5 3.85787 3.85787 0.5 8 0.5ZM8 3.71429C7.52628 3.71429 7.19643 5.41335 7.19643 5.85714V8C7.19643 8.4438 7.5562 8.80357 8 8.80357L9.04513 8.80291C10.1733 8.79651 13.3571 8.72824 13.3571 8C13.3571 7.19643 9.24737 7.19643 8.80357 7.19643V5.85714C8.80357 5.41335 8.47372 3.71429 8 3.71429Z" fill="#63637B"/>
</svg>
