<svg width="15" height="15" viewBox="0 0 15 15" fill="none" xmlns="http://www.w3.org/2000/svg">
<path d="M0.517902 6.37891C0.517902 9.66748 3.19124 12.3408 6.47982 12.3408C7.70296 12.3408 8.82357 11.9673 9.76107 11.3301L13.1302 14.6992C13.3353 14.9116 13.6209 15.0068 13.9066 15.0068C14.5291 15.0068 14.9759 14.5381 14.9759 13.9302C14.9759 13.6372 14.8734 13.3662 14.6756 13.1611L11.3285 9.80664C12.0243 8.84717 12.4417 7.66065 12.4417 6.37891C12.4417 3.09033 9.76839 0.416992 6.47982 0.416992C3.19124 0.416992 0.517902 3.09033 0.517902 6.37891ZM2.07064 6.37891C2.07064 3.94727 4.04085 1.96973 6.47982 1.96973C8.91146 1.96973 10.889 3.94727 10.889 6.37891C10.889 8.81055 8.91146 10.7881 6.47982 10.7881C4.04085 10.7881 2.07064 8.81055 2.07064 6.37891Z" fill="#9191A8"/>
</svg>
