<svg width="16" height="16" viewBox="0 0 16 16" fill="none" xmlns="http://www.w3.org/2000/svg">
<path fill-rule="evenodd" clip-rule="evenodd" d="M4.2499 0.5C2.17883 0.5 0.499897 2.17893 0.499897 4.25V11.75C0.499897 13.8211 2.17883 15.5 4.2499 15.5H11.7499C13.821 15.5 15.4999 13.8211 15.4999 11.75V4.25C15.4999 2.17893 13.821 0.5 11.7499 0.5H4.2499ZM5.2158 4.875H7.03396C7.22227 4.875 7.3749 5.02763 7.3749 5.21591V7.03406C7.3749 7.22238 7.22227 7.375 7.03396 7.375H5.2158C5.02753 7.375 4.8749 7.22238 4.8749 7.03406V5.21591C4.8749 5.02763 5.02753 4.875 5.2158 4.875ZM8.96583 4.875H10.784C10.9723 4.875 11.1249 5.02763 11.1249 5.21591V7.03406C11.1249 7.22238 10.9723 7.375 10.784 7.375H8.96583C8.77752 7.375 8.6249 7.22238 8.6249 7.03406V5.21591C8.6249 5.02763 8.77752 4.875 8.96583 4.875ZM7.03396 8.625H5.2158C5.02753 8.625 4.8749 8.77763 4.8749 8.96594V10.7841C4.8749 10.9724 5.02753 11.125 5.2158 11.125H7.03396C7.22227 11.125 7.3749 10.9724 7.3749 10.7841V8.96594C7.3749 8.77763 7.22227 8.625 7.03396 8.625ZM8.96583 8.625H10.784C10.9723 8.625 11.1249 8.77763 11.1249 8.96594V10.7841C11.1249 10.9724 10.9723 11.125 10.784 11.125H8.96583C8.77752 11.125 8.6249 10.9724 8.6249 10.7841V8.96594C8.6249 8.77763 8.77752 8.625 8.96583 8.625Z" fill="#63637B"/>
</svg>
