<svg width="20" height="17" viewBox="0 0 20 17" fill="none" xmlns="http://www.w3.org/2000/svg">
<path fill-rule="evenodd" clip-rule="evenodd" d="M13.3333 4C13.3333 4.88405 12.9821 5.7319 12.357 6.35702C11.7319 6.98214 10.8841 7.33333 10 7.33333C9.11594 7.33333 8.2681 6.98214 7.64298 6.35702C7.01785 5.7319 6.66667 4.88405 6.66667 4C6.66667 3.11594 7.01785 2.2681 7.64298 1.64297C8.2681 1.01785 9.11594 0.666664 10 0.666664C10.8841 0.666664 11.7319 1.01785 12.357 1.64297C12.9821 2.2681 13.3333 3.11594 13.3333 4ZM15 12.3333V16.5H5V12.3333C5 11.75 5.16667 11.1667 5.41667 10.6667C6 9.66666 7.08333 9 8.33333 9H11.6667C12.9167 9 14 9.66666 14.5833 10.6667C14.8333 11.1667 15 11.75 15 12.3333ZM0.833332 14V16.5H3.33333V10.75C1.91667 11.1667 0.833332 12.4167 0.833332 14ZM16.6667 10.75V16.5H19.1667V14C19.1667 12.4167 18.0833 11.1667 16.6667 10.75ZM16.6667 4C15.25 4 14.1667 5.08333 14.1667 6.5C14.1667 7.91666 15.25 9 16.6667 9C18.0833 9 19.1667 7.91666 19.1667 6.5C19.1667 5.08333 18.0833 4 16.6667 4ZM0.833332 6.5C0.833332 5.08333 1.91667 4 3.33333 4C4.75 4 5.83333 5.08333 5.83333 6.5C5.83333 7.91666 4.75 9 3.33333 9C1.91667 9 0.833332 7.91666 0.833332 6.5Z" fill="#63637B"/>
</svg>
