<svg width="12" height="4" viewBox="0 0 12 4" fill="none" xmlns="http://www.w3.org/2000/svg">
<path fill-rule="evenodd" clip-rule="evenodd" d="M1.5 0.666672C0.675 0.666672 0 1.34167 0 2.16667C0 2.99167 0.675 3.66667 1.5 3.66667C2.325 3.66667 3 2.99167 3 2.16667C3 1.34167 2.325 0.666672 1.5 0.666672ZM10.5 0.666672C9.675 0.666672 9 1.34167 9 2.16667C9 2.99167 9.675 3.66667 10.5 3.66667C11.325 3.66667 12 2.99167 12 2.16667C12 1.34167 11.325 0.666672 10.5 0.666672ZM4.5 2.16667C4.5 1.34167 5.175 0.666672 6 0.666672C6.825 0.666672 7.5 1.34167 7.5 2.16667C7.5 2.99167 6.825 3.66667 6 3.66667C5.175 3.66667 4.5 2.99167 4.5 2.16667Z" fill="#292936"/>
</svg>
