<svg width="8" height="16" viewBox="0 0 8 16" fill="none" xmlns="http://www.w3.org/2000/svg">
<path fill-rule="evenodd" clip-rule="evenodd" d="M6.05 4.90832L4 2.85832L1.94167 4.90832C1.61667 5.23332 1.09167 5.23332 0.766669 4.90832C0.441669 4.58332 0.441669 4.05832 0.766669 3.73332L3.40834 1.08332C3.56403 0.927278 3.7754 0.839584 3.99584 0.839584C4.21627 0.839584 4.42764 0.927278 4.58334 1.08332L7.225 3.73332C7.55 4.05832 7.55 4.58332 7.225 4.90832C6.9 5.23332 6.375 5.23332 6.05 4.90832ZM1.95 11.0917L4 13.1417L6.05834 11.1C6.21403 10.9439 6.4254 10.8563 6.64584 10.8563C6.86627 10.8563 7.07764 10.9439 7.23333 11.1C7.55833 11.425 7.55833 11.95 7.23333 12.275L4.59167 14.9167C4.26667 15.2417 3.74167 15.2417 3.41667 14.9167L0.775002 12.2667C0.450002 11.9417 0.450002 11.4167 0.775002 11.0917C0.930695 10.9356 1.14207 10.8479 1.3625 10.8479C1.58293 10.8479 1.79431 10.9356 1.95 11.0917Z" fill="#9191A8"/>
</svg>
