<svg width="12" height="10" viewBox="0 0 12 10" fill="none" xmlns="http://www.w3.org/2000/svg">
<path d="M2.76664 5.00415L5.99998 1.77082C6.32498 1.44582 6.31664 0.912485 5.99998 0.587485C5.67498 0.262485 5.14998 0.262485 4.82498 0.587485L0.999976 4.41248C0.674976 4.73748 0.674976 5.26248 0.999976 5.58748L4.82498 9.41248C4.98067 9.56853 5.19204 9.65622 5.41248 9.65622C5.63291 9.65622 5.84428 9.56853 5.99998 9.41248C6.32498 9.08748 6.32498 8.56248 5.99998 8.23748L2.76664 5.00415Z" fill="#9191A8"/>
<path d="M7.76664 5.00415L11 1.77082C11.325 1.44582 11.3166 0.912485 11 0.587485C10.675 0.262485 10.15 0.262485 9.82497 0.587485L5.99998 4.41248C5.67498 4.73748 5.67498 5.26248 5.99998 5.58748L9.82497 9.41248C9.98067 9.56853 10.192 9.65622 10.4125 9.65622C10.6329 9.65622 10.8443 9.56853 11 9.41248C11.325 9.08748 11.325 8.56248 11 8.23748L7.76664 5.00415Z" fill="#9191A8"/>
</svg>
